<svg viewBox="0 0 32 32" xmlns="http://www.w3.org/2000/svg">
  <!-- Rounded background circle -->
  <circle cx="16" cy="16" r="16" fill="#8B4513"/>
  
  <!-- Your logo design inside the rounded circle -->
  <!-- Shield-like background shape -->
  <path d="M8 6 L8 22 L16 26 L24 22 L24 6 L16 4 Z" fill="#654321" stroke="#4A2C17" stroke-width="0.5"/>
  
  <!-- Kaaba building (right side) -->
  <rect x="18" y="10" width="4" height="10" fill="#4A2C17"/>
  <rect x="19" y="11" width="2" height="1" fill="#4A2C17"/>
  <rect x="19" y="13" width="2" height="1" fill="#4A2C17"/>
  <rect x="19" y="15" width="2" height="1" fill="#4A2C17"/>
  
  <!-- Man's profile (left side) -->
  <path d="M10 12 Q10 8 14 8 Q18 8 18 12 L18 18 Q18 22 14 22 Q10 22 10 18 Z" fill="#4A2C17"/>
  <!-- Traditional cap/kufi -->
  <path d="M10 8 Q10 6 14 6 Q18 6 18 8" fill="#4A2C17"/>
  <!-- Beard -->
  <path d="M12 18 Q14 20 16 18" fill="#4A2C17" stroke="#4A2C17" stroke-width="0.5"/>
  <!-- Nose -->
  <path d="M14 12 Q15 13 14 14" fill="#4A2C17" stroke="#4A2C17" stroke-width="0.3"/>
  <!-- Shoulder/garment -->
  <path d="M8 20 Q10 22 12 20 L16 20 Q18 22 20 20" fill="#4A2C17"/>
</svg>